# xmcd
#
# Track frame offsets:
# 150
# 17905
# 43420
# 68355
#
# Disc length: 1248 seconds
#
#
# Revision: 2
# Processed by: cddbd v1.5.1PL0 Copyright (c) Steve Scherf et al.
# Submitted via: FreeRIP 2.90 
#
DISCID=2e04de04
DTITLE=David Bowie - Jump They Say [CD1 of 2)
DYEAR=1993
DGENRE=Rock
TTITLE0=Jump They Say (7" Version)
TTITLE1=Jump They Say (Hard Hands Mix)
TTITLE2=Jump They Say (JAE-E Remix)
TTITLE3=Pallas Athena (Don't Stop Praying Mix)
EXTD=YEAR 1993
EXTT0=
EXTT1=
EXTT2=
EXTT3=
PLAYORDER=
